<svg width="80" height="78" viewBox="0 0 80 78" fill="none" xmlns="http://www.w3.org/2000/svg">
<path d="M35.4379 0.276861C17.0379 2.27686 2.23793 17.0769 0.237927 35.0769C-1.76207 53.8769 9.03793 70.6769 25.4379 77.0769C26.6379 77.4769 27.8379 76.6769 27.8379 75.0769V68.6769C27.8379 68.6769 26.2379 69.0769 24.2379 69.0769C18.6379 69.0769 16.2379 64.2769 15.8379 61.4769C15.4379 59.8769 14.6379 58.6769 13.4379 57.4769C12.2379 57.0769 11.8379 57.0769 11.8379 56.6769C11.8379 55.8769 13.0379 55.8769 13.4379 55.8769C15.8379 55.8769 17.8379 58.6769 18.6379 59.8769C20.6379 63.0769 23.0379 63.8769 24.2379 63.8769C25.8379 63.8769 27.0379 63.4769 27.8379 63.0769C28.2379 60.2769 29.4379 57.4769 31.8379 55.8769C22.6379 53.8769 15.8379 48.6769 15.8379 39.8769C15.8379 35.4769 17.8379 31.0769 20.6379 27.8769C20.2379 27.0769 19.8379 25.0769 19.8379 22.2769C19.8379 20.6769 19.8379 18.6769 20.6379 17.0769C20.6379 16.2769 21.4379 15.8769 21.8379 15.8769H22.2379C24.2379 16.2769 28.2379 17.4769 31.8379 21.0769C34.2379 20.2769 37.0379 19.8769 39.8379 19.8769C42.6379 19.8769 45.4379 20.2769 47.8379 21.0769C51.4379 17.4769 55.8379 16.2769 57.8379 15.8769H58.2379C59.0379 15.8769 59.4379 16.2769 59.8379 17.0769C59.8379 18.6769 59.8379 20.6769 59.8379 22.2769C59.8379 25.4769 59.4379 27.0769 59.0379 27.8769C61.8379 31.0769 63.8379 35.0769 63.8379 39.8769C63.8379 48.6769 57.0379 53.8769 47.8379 55.8769C50.2379 57.8769 51.8379 61.4769 51.8379 65.0769V75.4769C51.8379 76.6769 53.0379 77.8769 54.6379 77.4769C69.4379 71.4769 79.8379 57.0769 79.8379 40.2769C79.8379 16.2769 59.4379 -2.52314 35.4379 0.276861Z" fill="black"/>
</svg>
