<svg width="72" height="72" viewBox="0 0 72 72" fill="white" xmlns="http://www.w3.org/2000/svg">
<path d="M20 0C8.956 0 0 8.956 0 20V52C0 63.044 8.956 72 20 72H52C63.044 72 72 63.044 72 52V20C72 8.956 63.044 0 52 0H20ZM60 8C62.208 8 64 9.792 64 12C64 14.208 62.208 16 60 16C57.792 16 56 14.208 56 12C56 9.792 57.792 8 60 8ZM36 16C47.044 16 56 24.956 56 36C56 47.044 47.044 56 36 56C24.956 56 16 47.044 16 36C16 24.956 24.956 16 36 16ZM36 24C32.8174 24 29.7652 25.2643 27.5147 27.5147C25.2643 29.7652 24 32.8174 24 36C24 39.1826 25.2643 42.2348 27.5147 44.4853C29.7652 46.7357 32.8174 48 36 48C39.1826 48 42.2348 46.7357 44.4853 44.4853C46.7357 42.2348 48 39.1826 48 36C48 32.8174 46.7357 29.7652 44.4853 27.5147C42.2348 25.2643 39.1826 24 36 24Z" fill="black"/>
</svg>
