<svg width="72" height="72" viewBox="0 0 72 72" fill="white" xmlns="http://www.w3.org/2000/svg">
<path d="M64 0H8C3.58 0 0 3.58 0 8V64C0 68.42 3.58 72 8 72H64C68.42 72 72 68.42 72 64V8C72 3.58 68.42 0 64 0ZM18.952 56C16.164 56 13.904 53.74 13.904 50.952V33.044C13.908 30.26 16.168 28 18.952 28C21.74 28 24 30.26 24 33.048V50.956C24 53.74 21.74 56 18.952 56ZM18.776 22.868C15.692 22.868 13.632 20.812 13.632 18.068C13.632 15.324 15.688 13.268 19.116 13.268C22.2 13.268 24.26 15.324 24.26 18.068C24.26 20.812 22.204 22.868 18.776 22.868ZM55.116 56C52.42 56 50.232 53.812 50.232 51.116V40.696C50.232 36.464 47.628 36 46.652 36C45.676 36 42.42 36.14 42.42 40.696V51.116C42.42 53.812 40.232 56 37.536 56H37.212C34.516 56 32.328 53.812 32.328 51.116V33.048C32.328 30.26 34.588 28 37.376 28C40.164 28 42.424 30.26 42.424 33.048C42.424 33.048 43.552 28 51.216 28C56.092 28 60 31.908 60 40.696V51.116C60 53.812 57.812 56 55.116 56Z" fill="black"/>
</svg>
