<svg width="58" height="84" viewBox="0 0 58 84" fill="none" xmlns="http://www.w3.org/2000/svg">
<path d="M15.17 32.96V18C15.17 12.48 19.65 8 25.17 8C30.69 8 35.17 12.48 35.17 18V32.96C40.01 29.72 43.17 24.24 43.17 18C43.17 8.04 35.13 0 25.17 0C15.21 0 7.17 8.04 7.17 18C7.17 24.24 10.33 29.72 15.17 32.96ZM37.17 42.84C36.05 42.28 34.85 42 33.61 42H31.17V18C31.17 14.68 28.49 12 25.17 12C21.85 12 19.17 14.68 19.17 18V60.96L5.41 58.08C3.93 57.76 2.37 58.24 1.29 59.32C-0.43 61.08 -0.43 63.88 1.29 65.64L17.33 81.68C18.85 83.16 20.89 84 23.01 84H47.41C51.41 84 54.77 81.08 55.33 77.12L57.85 59.24C58.33 55.84 56.57 52.48 53.49 50.96L37.17 42.84Z" fill="black"/>
</svg>
