<svg width="45" height="50" viewBox="0 0 45 50" fill="none" xmlns="http://www.w3.org/2000/svg">
<path d="M37.5 0C35.5109 0 33.6032 0.790177 32.1967 2.1967C30.7902 3.60322 30 5.51088 30 7.5C30.0015 7.97038 30.0473 8.43957 30.1367 8.90137L12.3486 19.2773C10.9938 18.1296 9.27565 17.4998 7.5 17.5C5.51088 17.5 3.60322 18.2902 2.1967 19.6967C0.790177 21.1032 0 23.0109 0 25C0 26.9891 0.790177 28.8968 2.1967 30.3033C3.60322 31.7098 5.51088 32.5 7.5 32.5C9.27291 32.4965 10.9873 31.8651 12.3389 30.7178L30.1367 41.0986C30.0473 41.5604 30.0015 42.0296 30 42.5C30 44.4891 30.7902 46.3968 32.1967 47.8033C33.6032 49.2098 35.5109 50 37.5 50C39.4891 50 41.3968 49.2098 42.8033 47.8033C44.2098 46.3968 45 44.4891 45 42.5C45 40.5109 44.2098 38.6032 42.8033 37.1967C41.3968 35.7902 39.4891 35 37.5 35C35.7254 35.0023 34.0091 35.6338 32.6562 36.7822L14.8633 26.4014C14.9527 25.9396 14.9985 25.4704 15 25C14.9985 24.5296 14.9527 24.0604 14.8633 23.5986L32.6514 13.2227C34.0062 14.3704 35.7244 15.0002 37.5 15C39.4891 15 41.3968 14.2098 42.8033 12.8033C44.2098 11.3968 45 9.48912 45 7.5C45 5.51088 44.2098 3.60322 42.8033 2.1967C41.3968 0.790177 39.4891 0 37.5 0Z" fill="white"/>
</svg>
